<svg xmlns="http://www.w3.org/2000/svg" viewBox="0 0 2690.22 815.04"><defs><style>.cls-1,.cls-10,.cls-15,.cls-24,.cls-33,.cls-53,.cls-62{fill:#2b2b2b;}.cls-1,.cls-10,.cls-11,.cls-12,.cls-13,.cls-14,.cls-16,.cls-17,.cls-18,.cls-19,.cls-2,.cls-20,.cls-21,.cls-22,.cls-23,.cls-24,.cls-25,.cls-26,.cls-27,.cls-28,.cls-29,.cls-3,.cls-30,.cls-31,.cls-32,.cls-33,.cls-34,.cls-35,.cls-36,.cls-37,.cls-38,.cls-39,.cls-4,.cls-40,.cls-41,.cls-42,.cls-46,.cls-47,.cls-48,.cls-49,.cls-5,.cls-50,.cls-51,.cls-52,.cls-53,.cls-6,.cls-61,.cls-7,.cls-76,.cls-77,.cls-8,.cls-9{fill-rule:evenodd;}.cls-1,.cls-47{opacity:0.05;}.cls-2,.cls-67{fill:#c2977b;}.cls-3,.cls-66{fill:#debca4;}.cls-4,.cls-63{fill:#8a6651;}.cls-5{fill:#cbac14;}.cls-6{fill:#e4c728;}.cls-7{fill:#755800;}.cls-8{fill:#9d7700;}.cls-9{fill:#ab913c;}.cls-11{fill:#4f5253;}.cls-12,.cls-54{fill:#474747;}.cls-13{fill:#846400;}.cls-14,.cls-74{fill:#e7c9b5;}.cls-16{fill:#737373;}.cls-17,.cls-69{fill:#8e8e8e;}.cls-18{fill:#fff;}.cls-19{fill:#6f7173;}.cls-20,.cls-64{fill:#35785d;}.cls-21{fill:#3f8e6f;}.cls-22,.cls-65{fill:#54af8a;}.cls-23,.cls-72{fill:#72c8a5;}.cls-24,.cls-55,.cls-62,.cls-77{opacity:0.1;}.cls-25{fill:#27788b;}.cls-26{fill:#3a9fb9;}.cls-27{fill:#5ebfd8;}.cls-28{fill:#50a8a9;}.cls-29{fill:#369395;}.cls-30{fill:#72cacb;}.cls-31{fill:#8bdfdb;}.cls-32{fill:#318ea5;}.cls-33,.cls-76{opacity:0.2;}.cls-34,.cls-75{fill:#1c7678;}.cls-35{fill:#594165;}.cls-36{fill:#8f759f;}.cls-37,.cls-44{fill:#785d87;}.cls-38,.cls-45{fill:#95637c;}.cls-39,.cls-43{fill:#734d60;}.cls-40{fill:#848585;}.cls-41{fill:#b2879c;}.cls-42{fill:#d0a0b7;}.cls-46{fill:#543042;}.cls-48,.cls-58{fill:#98c16d;}.cls-49,.cls-68{fill:#738c57;}.cls-50,.cls-56{fill:#709c53;}.cls-51,.cls-59{fill:#5a753d;}.cls-52,.cls-57{fill:#446125;}.cls-53{opacity:0.05;isolation:isolate;}.cls-60{fill:#9fce7e;}.cls-61{fill:#73cee4;}.cls-70{fill:#dcdcdb;}.cls-71{fill:#c3c3c3;}.cls-73{fill:#ebebea;}</style></defs><title>16Personalities</title><g id="default"><polygon class="cls-1" points="2092.51 723.94 1821.21 760.75 1744.38 768.99 1640.1 777.33 1543.56 747.24 1755.18 697.77 2092.51 723.94"/><polygon class="cls-2" points="2054.29 706.04 2075.83 709.39 2090.14 719.47 2092.51 723.94 2073.4 723.94 2054.29 706.04"/><polygon class="cls-2" points="1957.36 680.62 2024.1 705.59 2028.55 714.99 2024.1 722.83 1957.36 723.94 1957.36 680.62"/><polygon class="cls-3" points="2024.1 705.59 2045.24 691.98 2073.4 723.94 2024.1 722.83 2024.1 705.59"/><polygon class="cls-4" points="1957.36 723.94 1972.28 686.2 1957.36 680.62 1957.36 723.94"/><polygon class="cls-1" points="1424.45 712.94 1461.49 728.79 1513.13 714.06 1461.49 695.73 1411.45 694.75 1424.45 712.94"/><polygon class="cls-1" points="1438.92 672.35 1478.35 676.16 1539.36 661.36 1484.63 653.01 1438.92 672.35"/><polygon class="cls-2" points="1636.09 755.09 1591.74 679.11 1594.36 668.69 1604.79 656.95 1676.33 741.54 1636.09 755.09"/><polygon class="cls-3" points="1705.3 695.38 1661.37 765.38 1636.09 755.09 1667.4 676.59 1705.09 676.59 1705.3 695.38"/><polygon class="cls-4" points="1604.79 656.95 1588.06 652.49 1567.08 650.35 1561.17 650.35 1549.32 655.34 1591.74 679.11 1604.79 656.95"/><polygon class="cls-2" points="1567.08 650.35 1573.03 627.05 1549.32 655.34 1567.08 650.35"/><polygon class="cls-4" points="2001.3 611.71 2001.3 632.54 1998.1 633.37 1974.32 619.24 2001.3 611.71"/><polygon class="cls-3" points="1907.3 726.72 1910.08 697.63 1925.61 666.69 1947.35 595.39 1960.7 612.55 1960.14 629.71 1957.36 723.94 1907.3 726.72"/><polygon class="cls-2" points="2001.3 611.71 1947.35 595.39 1960.14 629.71 2001.3 611.71"/><polygon class="cls-5" points="1876.71 637.33 1925.61 666.69 1907.3 726.72 1864.48 735.06 1864.48 688.42 1876.71 637.33"/><polygon class="cls-6" points="1838.34 666.69 1876.71 637.33 1864.48 735.06 1841.67 739.51 1836.11 703.16 1838.34 666.69"/><polygon class="cls-7" points="1782.8 643.84 1792.35 686.74 1792.35 726.72 1746.98 751.81 1758.81 643.45 1782.8 643.84"/><polygon class="cls-8" points="1782.8 643.84 1792.35 726.72 1841.67 739.51 1838.34 666.69 1806.88 640.63 1794.18 636.61 1782.8 643.84"/><polygon class="cls-4" points="1615.02 658.74 1683.66 664.04 1697.17 686.74 1615.02 658.74"/><polygon class="cls-7" points="1460.69 635.97 1478.35 650.21 1473.9 657.47 1463.28 650.41 1460.69 635.97"/><polygon class="cls-7" points="1449.73 678.66 1455.98 695.28 1447.84 697.81 1440.27 682.68 1449.73 678.66"/><polygon class="cls-9" points="1436.79 670.06 1459.75 654.31 1515.49 642.01 1452.65 666.5 1436.79 670.06"/><polygon class="cls-9" points="1409.62 690.09 1437.93 689.29 1488.08 705.93 1461.49 714.06 1409.62 690.09"/><polygon class="cls-8" points="1449.73 678.66 1440.27 702.76 1428.46 697.81 1439.1 675.77 1449.73 678.66"/><polygon class="cls-8" points="1460.69 635.97 1473.9 657.47 1463.97 661.16 1452.65 642.79 1460.69 635.97"/><polygon class="cls-7" points="1436.79 670.06 1438.92 672.35 1511.73 668.22 1515.49 642.01 1436.79 670.06"/><polygon class="cls-7" points="1409.62 690.09 1411.45 694.75 1461.49 728.79 1483.36 719.99 1488.08 705.93 1460.29 711.04 1409.62 690.09"/><polygon class="cls-10" points="1558.01 540.75 1548.04 562.96 1578.98 577.19 1590.21 538.98 1558.01 540.75"/><polygon class="cls-11" points="1591.62 499.37 1549.32 525.65 1578.98 577.19 1603.54 516.8 1591.62 499.37"/><polygon class="cls-12" points="1549.32 525.65 1584.36 544.08 1596.74 563.89 1578.98 577.19 1549.32 525.65"/><polygon class="cls-13" points="1589.34 556.74 1562.1 586.1 1581.34 605.95 1583.64 591.76 1578.59 586.43 1585.8 578.48 1591.17 572.27 1589.34 556.74"/><polygon class="cls-3" points="1705.09 625.42 1680 662.57 1677.11 662.38 1647.41 664.04 1615.02 658.74 1567.08 650.35 1591.62 499.37 1679.03 574.98 1705.09 625.42"/><polygon class="cls-2" points="1662.29 602.68 1647.41 664.04 1680 668.47 1718.07 708.97 1724.88 633.78 1686.25 581.56 1662.29 602.68"/><polygon class="cls-2" points="1609.11 546.68 1611.64 552.07 1606.55 583.1 1595.95 556.5 1591.74 546.3 1609.11 546.68"/><polygon class="cls-2" points="1621.92 553.7 1631.95 549.88 1652.83 559.97 1628.2 576.94 1616.45 595.79 1621.92 553.7"/><polygon class="cls-4" points="1672 631.37 1719.52 652.49 1719.91 637.33 1695.96 595.94 1670.08 602.47 1672 631.37"/><polygon class="cls-14" points="1621.92 553.7 1611.64 552.07 1604.79 593.86 1616.45 595.79 1621.92 553.7"/><polygon class="cls-4" points="1616.45 595.79 1609.23 601.86 1604.79 593.86 1616.45 595.79"/><polygon class="cls-4" points="1590.04 509.11 1660.77 608.02 1678.46 615.79 1680 597.19 1631.95 549.88 1591.62 499.37 1590.04 509.11"/><circle class="cls-15" cx="1596.75" cy="563.76" r="6.19"/><circle class="cls-15" cx="1634.64" cy="570.89" r="6.19"/><polygon class="cls-11" points="1792.85 610.27 1806.88 640.63 1762.95 646.49 1693.7 595.61 1792.85 610.27"/><polygon class="cls-12" points="1743.48 565.13 1821.21 587.45 1762.95 646.49 1739.57 653.14 1705.09 625.42 1698.28 617.05 1665.97 593.97 1743.48 565.13"/><polygon class="cls-16" points="1749.22 583.95 1821.21 587.45 1746.69 563.94 1744.38 571.88 1749.22 583.95"/><polygon class="cls-11" points="1661.37 482.02 1737.52 491.63 1749.22 583.95 1702.46 534.41 1661.37 482.02"/><polygon class="cls-11" points="1579.88 482.21 1662.29 602.68 1762.95 599.88 1678.12 540.74 1579.88 482.21"/><polygon class="cls-17" points="1579.88 482.21 1638.8 455.84 1762.95 599.88 1579.88 482.21"/><polygon class="cls-10" points="1609.41 535 1591.74 546.3 1609.11 546.68 1609.41 535"/><polygon class="cls-13" points="1647.12 617.51 1608.84 604.84 1581.63 608.85 1602.78 646.49 1647.12 617.51"/><polygon class="cls-7" points="1635.26 618.33 1589.92 612.41 1600.81 632.32 1611.38 633.78 1635.26 618.33"/><polygon class="cls-18" points="1623.32 626.06 1595.37 622.37 1589.92 612.41 1635.26 618.33 1623.32 626.06"/><polygon class="cls-13" points="1676.33 602.29 1672 631.37 1719.91 637.33 1711.32 625.32 1684.78 621.63 1686.55 608.29 1676.33 602.29"/><polygon class="cls-19" points="1796.45 612.55 1806.88 640.63 1777.82 631.42 1796.45 612.55"/><polygon class="cls-10" points="1724.51 600.95 1739.57 653.14 1705.09 625.42 1676.33 602.29 1724.51 600.95"/><polygon class="cls-8" points="1719.91 637.33 1705.3 695.38 1718.07 708.97 1724.88 661.13 1719.91 637.33"/><polygon class="cls-2" points="1717.49 731.51 1640.1 746.93 1635.02 753.25 1636.09 763.73 1716.53 768.99 1719.91 748.78 1717.49 731.51"/><polygon class="cls-3" points="1719.91 637.33 1762.95 646.49 1744.38 768.99 1716.53 768.99 1719.91 637.33"/><polygon class="cls-3" points="1640.1 746.93 1616.45 731.51 1609.41 750.25 1609.41 762.98 1636.09 763.73 1640.1 746.93"/><polygon class="cls-2" points="1616.45 731.51 1585.09 760.75 1609.41 762.98 1616.45 731.51"/><polygon class="cls-1" points="668.23 736.58 483.67 705.06 441.14 716.35 453.34 701.08 376.7 682.76 263.3 633.5 160.84 684.63 230.77 755.65 307.47 768.62 343.33 758.77 525.85 815.02 668.23 736.58"/><polygon class="cls-20" points="172.83 629.88 198.03 678.5 231.78 686.02 294.38 660.61 305.54 611.62 228.48 639.83 172.83 629.88"/><polygon class="cls-21" points="158.69 620.61 182.55 648.64 225.26 662.2 249.22 632.24 299.78 636.78 317.56 603.11 268.83 583.05 214.56 611.62 158.69 620.61"/><polygon class="cls-22" points="158.69 620.61 158.69 593.29 217.87 601.8 245.7 571.37 295.99 575.62 317.56 603.11 249.22 632.24 158.69 620.61"/><polygon class="cls-23" points="158.69 593.29 220.84 536.01 274.45 546.07 295.99 575.62 214.56 611.62 158.69 593.29"/><polygon class="cls-24" points="225.26 662.2 231.78 686.02 294.38 660.61 299.78 636.78 317.56 603.11 274.45 546.07 180.99 573.82 200.79 607.1 182.55 648.64 225.26 662.2"/><polygon class="cls-20" points="359.93 752.89 409.17 710.94 399.61 686.72 385.14 614.4 334.83 586.91 303.02 621.34 255.32 654.13 270.4 734.45 359.93 752.89"/><polygon class="cls-21" points="421.79 657.88 399.61 686.72 354.55 707.01 333.63 730.33 292.31 726.69 270.4 734.45 246.06 684.82 309.63 693.55 334.83 666.64 421.79 657.88"/><polygon class="cls-22" points="421.79 657.88 354.55 707.01 309.63 693.55 246.06 684.82 255.32 654.13 385.14 614.4 421.79 657.88"/><polygon class="cls-23" points="385.14 614.4 357.64 667.35 312.74 672.36 255.32 654.13 334.83 586.91 369.57 577.42 385.14 614.4"/><polygon class="cls-21" points="357.64 667.35 255.32 654.13 309.63 693.55 357.64 667.35"/><polyline class="cls-24" points="385.14 614.4 387.91 682.64 359.93 752.89 270.4 734.45 292.31 726.69 309.63 693.55 293.91 659.11 369.57 577.42"/><polygon class="cls-20" points="207.73 733.49 230.77 755.65 287.08 737.88 299.96 712.04 240.07 716.86 207.73 733.49"/><polygon class="cls-22" points="299.96 712.04 287.08 687.89 232.61 708.55 196.5 701.15 207.73 733.49 237.16 736.26 299.96 712.04"/><polygon class="cls-22" points="196.5 701.15 237.16 736.26 287.08 687.89 235.84 677.33 196.5 701.15"/><polygon class="cls-23" points="214.79 690.08 224.16 642.05 255.22 654.73 287.08 687.89 216.61 718.52 214.79 690.08"/><polygon class="cls-24" points="230.77 755.65 237.16 736.26 237.16 709.59 224.16 642.05 255.22 654.73 272.44 672.65 237.16 709.59 287.08 687.89 270.4 722.82 230.77 755.65"/><polygon class="cls-2" points="554.03 675.77 568.67 723.23 557.83 738.36 522.88 705.06 554.03 675.77"/><polygon class="cls-25" points="568.67 723.23 603.16 729.91 594.81 741.65 580.91 749.93 565.89 746.03 556.44 734.36 568.67 723.23"/><polygon class="cls-26" points="603.16 729.91 615.35 729.45 619.2 734.36 588.7 754.38 580.91 753.54 580.91 749.93 603.16 729.91"/><polygon class="cls-3" points="532.73 702.26 556.44 734.36 548.84 743.15 534.75 746.03 508.93 731.86 512.35 715.97 532.73 702.26"/><polygon class="cls-26" points="556.44 734.36 580.91 749.93 566.63 760.93 542.16 772.73 534.75 746.03 556.44 734.36"/><polygon class="cls-27" points="580.91 749.93 602.25 757.47 602.89 763.28 542.16 772.73 580.91 749.93"/><polygon class="cls-28" points="483.67 763.28 554.03 675.77 539.94 634.15 518.85 606.95 492.02 621.58 479.13 684.62 483.67 763.28"/><polygon class="cls-29" points="465.73 608.29 422.75 675.77 400.3 749.93 483.67 763.28 492.02 621.58 465.73 608.29"/><polygon class="cls-2" points="522.88 579.76 546.61 582.77 561.44 615.27 539.94 634.15 522.88 579.76"/><polygon class="cls-3" points="522.88 579.76 561.44 615.27 550.32 579.76 522.88 579.76"/><polygon class="cls-3" points="470.97 561.48 522.88 579.76 508.93 606.95 466.54 601.06 470.97 561.48"/><polygon class="cls-30" points="359.71 546.39 347.92 579.76 353.39 595.75 335.37 615.27 400.3 749.93 465.73 608.29 465.73 566.02 429.08 546.39 359.71 546.39"/><polygon class="cls-28" points="429.08 546.39 466.54 601.06 470.97 561.48 429.08 546.39"/><polygon class="cls-11" points="447.8 385.1 483.67 398.19 466.35 437.17 453.73 411.88 447.8 385.1"/><polygon class="cls-30" points="305.34 416.65 290.8 409.87 269.93 386.69 364.93 316.41 380.34 342.38 386.58 363.84 345.46 399.25 305.34 416.65"/><polygon class="cls-31" points="364.93 316.41 444.74 330.69 447.8 385.1 413.64 378.8 386.58 363.84 364.93 316.41"/><polygon class="cls-29" points="269.93 386.69 290.27 448.07 302.05 432.37 305.34 416.65 269.93 386.69"/><polygon class="cls-25" points="369.32 326.03 365.49 328.68 370.43 340.23 361.23 346.51 364.51 354.17 374.13 347.86 378.96 358.37 382.98 355.93 380.34 342.38 369.32 326.03"/><polygon class="cls-32" points="369.32 326.03 374.83 327.37 379.51 337.12 390.89 339.78 392.34 346.99 383.08 345.09 388.03 356.4 382.98 355.93 369.32 326.03"/><polygon class="cls-33" points="363.61 673.84 410.42 685.41 492.02 621.58 539.94 634.15 532.68 602.23 387.92 636.47 335.37 615.27 363.61 673.84"/><polygon class="cls-3" points="447.8 385.1 491.12 506.72 431.52 530.34 421.65 595.18 356.73 536.6 314.65 510.9 335.53 492.56 349.84 508.94 353.39 436.67 371.07 419.89 393 415.03 447.8 385.1"/><polygon class="cls-2" points="353.39 436.67 393.43 544.92 431.52 530.34 421.75 544.86 427.63 555.92 421.65 595.18 314.65 510.9 335.53 492.56 349.84 508.94 344.98 475.88 353.39 436.67"/><polygon class="cls-2" points="444.68 420.06 428.83 456.56 421.07 473.66 380.36 445.54 444.68 420.06"/><polygon class="cls-14" points="406.46 435.1 421.07 473.66 433.62 469.01 418.7 430.2 406.46 435.1"/><polygon class="cls-4" points="433.62 469.01 429.89 478.88 421.07 473.66 433.62 469.01"/><polygon class="cls-4" points="431.52 530.34 427.63 555.92 381.99 549.07 431.52 530.34"/><polygon class="cls-4" points="350.52 520.53 349.35 538.23 339.4 530.39 350.52 520.53"/><polygon class="cls-4" points="344.52 515.7 333.62 504.31 326.22 510.91 344.52 515.7"/><polygon class="cls-11" points="393 415.03 394.77 388.33 386.58 363.84 305.34 416.65 276.17 477.49 315.41 459.93 353.39 436.67 370.58 427.27 393 415.03"/><polygon class="cls-10" points="353.39 436.67 349.84 508.94 335.53 492.56 314.65 510.9 276.17 477.49 353.39 436.67"/><polygon class="cls-16" points="386.58 363.84 447.8 385.1 416.27 407.59 393 415.03 386.58 363.84"/><polygon class="cls-11" points="406.46 435.1 403.18 426.57 380.36 445.54 406.46 435.1"/><polygon class="cls-11" points="418.7 430.2 444.68 420.06 415.82 421.9 418.7 430.2"/><polygon class="cls-28" points="410.42 499.31 440.32 504.88 456.7 481.25 437 496.86 410.42 499.31"/><polygon class="cls-34" points="421.85 498.26 433.23 487.11 448.52 487.74 437 496.86 421.85 498.26"/><polygon class="cls-14" points="420.04 610.51 495.44 595.18 500.63 606.98 492.02 621.58 413.34 662.72 412.52 634.15 420.04 610.51"/><polygon class="cls-2" points="495.44 595.18 522.88 579.76 532.68 602.23 525.85 624.71 492.02 621.58 495.44 595.18"/><polygon class="cls-14" points="522.88 579.76 546.61 601.61 539.94 634.15 525.85 624.71 522.88 579.76"/><polygon class="cls-31" points="347.92 579.76 420.04 610.51 410.42 685.41 335.37 615.27 347.92 579.76"/><circle class="cls-15" cx="400.3" cy="457.24" r="6.01"/><circle class="cls-15" cx="436.98" cy="443.1" r="6.01"/><polygon class="cls-1" points="2685.99 730.67 2540.99 681.16 2410.9 724.45 2551.01 774.87 2685.99 730.67"/><polygon class="cls-35" points="2481.42 692.44 2448.36 721.22 2448.36 725.48 2517.76 721.96 2519.1 708.48 2504.34 697.85 2481.42 692.44"/><polygon class="cls-36" points="2550.87 639.12 2573.07 722.67 2595.55 720.4 2611.89 706.05 2622.47 611.77 2581.05 609.92 2550.87 639.12"/><polygon class="cls-35" points="2611.84 704.77 2634.55 730.75 2634.43 735.61 2574.69 737.66 2573.07 722.51 2611.84 704.77"/><polygon class="cls-36" points="2555.79 626.79 2519.1 712.03 2502.1 701.24 2481.42 692.44 2484.68 606.89 2555.79 626.79"/><polygon class="cls-37" points="2622.47 611.77 2550.87 639.12 2484.68 606.89 2584.42 608.49 2622.47 611.77"/><polygon class="cls-2" points="2441.96 433.19 2452.29 395.5 2443.08 391.88 2430.94 410.65 2434.31 420.91 2441.96 433.19"/><polygon class="cls-38" points="2454.53 454.64 2460.81 472.32 2476.58 492.27 2489.28 486.69 2495.82 453.3 2493.34 417.01 2454.53 454.64"/><polygon class="cls-39" points="2476.58 492.27 2441.96 433.19 2427.05 434.19 2410.45 446.09 2435.68 511.44 2476.58 492.27"/><polygon class="cls-3" points="2441.96 433.19 2410.45 446.09 2395.04 425.37 2410.45 410.65 2427.5 403.61 2441.96 433.19"/><polygon class="cls-2" points="2427.5 403.61 2399.6 381.85 2384.23 399.27 2395.04 425.37 2427.5 403.61"/><polygon class="cls-38" points="2526.33 399.27 2592.98 393.89 2603.21 411.44 2634.7 424.49 2627.17 615.29 2536.31 615.29 2489.69 604.92 2493.34 417.01 2526.33 399.27"/><polygon class="cls-35" points="2586.39 407.58 2579.6 440.28 2535.71 469.12 2524.19 427.51 2526.33 399.27 2535.29 400.19 2551.66 411.44 2586.39 407.58"/><polygon class="cls-36" points="2592.98 393.89 2603.21 411.44 2590.71 426.83 2571.5 438.53 2551.66 411.44 2530.28 428.66 2525.05 415.21 2526.33 399.27 2536.5 388.21 2592.98 393.89"/><polygon class="cls-3" points="2469.48 360.33 2533.35 378.84 2551.66 411.44 2573.45 395.4 2592.98 393.89 2591.29 374.89 2598.14 364.88 2601.27 347.3 2610.49 348.58 2626.11 324.37 2612.38 313.33 2590.44 330.27 2580.23 321.97 2617.67 258.22 2597.7 237.05 2527.38 230.8 2507.26 216.95 2490.69 259.34 2469.48 360.33"/><polygon class="cls-2" points="2499.72 260.12 2509.2 283.9 2524.19 320.95 2546.73 293.57 2571.5 273.67 2544.34 267.09 2535.28 269.07 2526.33 263 2517.65 255.93 2499.72 260.12"/><polygon class="cls-39" points="2528.22 250.95 2499.72 260.12 2526.33 263.01 2528.22 250.95"/><polygon class="cls-39" points="2544.34 267.09 2571.5 273.67 2548.43 255.32 2544.34 267.09"/><polygon class="cls-14" points="2526.33 263.01 2512.11 317.98 2524.19 320.95 2544.34 267.09 2526.33 263.01"/><polygon class="cls-4" points="2512.11 317.98 2515.77 327.55 2524.19 320.95 2512.11 317.98"/><polygon class="cls-4" points="2495.75 338.32 2539.57 344.42 2535.91 350.11 2496.3 345.08 2495.75 338.32"/><polygon class="cls-4" points="2614.72 324.05 2598.53 333.45 2611.36 334.61 2614.72 324.05"/><polygon class="cls-4" points="2603.21 347.57 2590.71 345.56 2598.14 364.88 2603.21 347.57"/><polygon class="cls-4" points="2469.48 360.33 2548.43 375.66 2566.5 376.28 2551.66 411.44 2531.93 381.22 2469.48 360.33"/><polygon class="cls-2" points="2597.7 237.05 2571.5 273.67 2548.43 375.66 2561.84 378.01 2551.66 411.44 2592.98 393.89 2598.14 364.88 2603.21 347.57 2590.71 345.56 2590.44 330.27 2580.23 321.96 2617.67 258.22 2597.7 237.05"/><polygon class="cls-12" points="2492.2 205.45 2507.26 216.95 2526.45 233.47 2535.28 204.69 2533.15 175.97 2492.2 205.45"/><polygon class="cls-40" points="2533.15 175.97 2632.76 222.42 2614.79 234.65 2595.72 238.78 2526.45 233.47 2533.15 175.97"/><polygon class="cls-16" points="2595.72 238.78 2614.82 258.14 2629.03 258.34 2640.91 252.67 2632.76 222.42 2595.72 238.78"/><polygon class="cls-12" points="2614.82 258.14 2577.29 323.12 2590.16 332.36 2612.01 315.04 2624.6 324.75 2616.08 339.91 2657.73 321.53 2640.91 252.67 2614.82 258.14"/><polygon class="cls-4" points="2590.71 345.56 2598.14 364.88 2603.21 347.57 2590.71 345.56"/><polygon class="cls-41" points="2535.71 469.12 2620.98 444.85 2603.21 411.44 2535.71 469.12"/><polygon class="cls-41" points="2535.71 469.12 2536.31 615.29 2475.09 607.48 2493.34 417.01 2509.25 413.37 2526.33 399.27 2535.71 469.12"/><polygon class="cls-42" points="2526.33 399.27 2493.34 417.01 2535.71 469.12 2526.33 399.27"/><rect class="cls-43" x="2551.74" y="491.63" width="12.36" height="12.36" transform="translate(397.1 1954.4) rotate(-45)"/><rect class="cls-43" x="2551.74" y="535.05" width="12.36" height="12.36" transform="translate(366.65 1967.48) rotate(-45.01)"/><rect class="cls-43" x="2551.74" y="578.46" width="12.36" height="12.36" transform="translate(335.71 1979.82) rotate(-45)"/><rect class="cls-44" x="2501.16" y="453.79" width="9.36" height="37.99" transform="translate(-17.94 837.88) rotate(-18.92)"/><rect class="cls-45" x="2495.84" y="486.69" width="32.74" height="7.98"/><polygon class="cls-39" points="2634.7 424.49 2669.95 523.12 2642.88 515.15 2626.88 504.07 2634.7 424.49"/><polygon class="cls-46" points="2669.95 523.12 2628.64 577.98 2608.71 573.92 2595.72 556.16 2626.88 504.07 2669.95 523.12"/><polygon class="cls-2" points="2595.72 556.16 2586.39 569.31 2613.43 599.35 2628.64 577.98 2595.72 556.16"/><polygon class="cls-33" points="2613.43 599.35 2627.17 615.29 2628.64 577.98 2613.43 599.35"/><circle class="cls-15" cx="2507.5" cy="283.9" r="5.45"/><circle class="cls-15" cx="2546.77" cy="292.89" r="5.45"/><polygon class="cls-47" points="1855.85 562.76 2109.82 621.24 2258.42 572.23 2048.17 499.78 1855.85 562.76"/><polygon class="cls-3" points="1916.71 495.68 1884.13 505.8 1912.43 516 1916.71 495.68"/><polygon class="cls-48" points="1884.13 505.8 1877.63 504.21 1873.32 509.14 1904.9 533.24 1914.55 516 1884.13 505.8"/><polygon class="cls-3" points="1904.9 533.24 1886.69 553.98 1934.59 543.11 1904.9 533.24"/><polygon class="cls-48" points="1886.69 553.98 1880.94 556.04 1876.13 562.16 1948.51 562.53 1947.72 547.48 1942.68 537.69 1886.69 553.98"/><polygon class="cls-49" points="1928.17 540.98 1948.51 562.53 1947.72 547.48 1928.17 540.98"/><polygon class="cls-49" points="2010.39 416.81 1956.05 410.46 1967.08 459.83 2045.77 437.97 2010.39 416.81"/><polygon class="cls-48" points="2032.66 358.38 2010.39 416.81 2060.54 387.6 2032.66 358.38"/><polygon class="cls-50" points="2043.58 392.72 2010.39 416.81 2045.8 450.19 2069.79 449.71 2062.88 416.81 2043.58 392.72"/><polygon class="cls-51" points="2010.39 416.81 2069.79 449.71 2078.66 460.57 2081.14 474.4 2040.03 465.02 2010.39 416.81"/><polygon class="cls-52" points="2040.03 465.02 2062.88 501.83 2088.33 526.34 2092.79 499.75 2092.79 481.18 2081.14 474.4 2040.03 465.02"/><polygon class="cls-51" points="2040.03 465.02 2088.33 526.34 2084.02 556.23 2022.17 572.23 2025.5 513.96 2040.03 465.02"/><polygon class="cls-48" points="2040.03 465.02 1937.53 429.42 1973.8 505.06 2022.17 572.23 2040.03 465.02"/><polygon class="cls-50" points="1937.53 429.42 1904.9 533.24 2022.17 572.23 1937.53 429.42"/><polygon class="cls-4" points="2028.9 346.56 2033.68 361.61 2043.58 392.72 2059.7 370.87 2062.88 352.29 2044.96 343.5 2028.9 346.56"/><polygon class="cls-3" points="1976.19 234.18 1972.22 336.99 2062.88 352.29 2088.33 292.24 2066.66 236.57 2024.83 232.31 1976.19 234.18"/><polygon class="cls-3" points="2043 213.06 2036.51 203.62 2019.14 197.2 2004.49 201.24 1994.48 213.39 2019.53 216.1 2043 213.06"/><polygon class="cls-2" points="2023.51 247.31 2018.74 254.46 2017.15 295.82 2033.48 262.68 2048.17 259.63 2023.51 247.31"/><polygon class="cls-2" points="2007.21 254.07 1987.32 244.52 2005.15 277.42 2007.21 254.07"/><polygon class="cls-2" points="2066.66 236.57 2062.88 352.29 2082.54 319.8 2088.33 292.24 2081.59 261.32 2066.66 236.57"/><polygon class="cls-48" points="2151.56 212.31 2092.66 208.87 2044.07 213.05 2019.05 213.22 1995 213.39 1986.34 212 1977.78 213.5 1976.19 234.18 2066.66 236.57 2089.3 241.98 2113.73 237.81 2134.52 243.59 2157.13 238.96 2151.56 212.31"/><polygon class="cls-51" points="2023.91 224.24 2013.57 213.26 2002.44 223.84 2013.16 235.16 2023.91 224.24"/><polygon class="cls-22" points="2151.56 212.31 2138.44 157.83 2024.71 173.74 2016.75 185.93 2019.14 197.2 2043 213.06 2151.56 212.31"/><polygon class="cls-21" points="2024.71 173.74 1981.76 180.1 1977.78 213.5 1994.48 213.39 2019.14 197.2 2024.71 173.74"/><polygon class="cls-20" points="2048.17 259.63 2038.63 248.9 2023.51 247.31 2048.17 259.63"/><polygon class="cls-20" points="2007.21 254.07 1999.26 245.32 1987.32 244.52 2007.21 254.07"/><polygon class="cls-14" points="2007.21 254.07 2018.74 254.46 2017.15 295.82 2003.63 294.63 2007.21 254.07"/><polygon class="cls-4" points="2017.15 295.82 2009.99 303.77 2003.63 294.63 2017.15 295.82"/><polygon class="cls-48" points="2022.13 321.97 2009.01 329.53 1998.67 320.38 2022.13 321.97"/><polygon class="cls-51" points="2040.03 312.83 2022.13 321.97 1998.67 320.38 1989.53 310.84 1999.47 314.81 2009.81 310.84 2026.11 316.41 2040.03 312.83"/><polygon class="cls-21" points="2066.66 236.57 2088.33 292.24 2107.97 264.88 2113.73 237.81 2066.66 236.57"/><polygon class="cls-22" points="2113.73 237.81 2157.13 238.96 2176.45 313.92 2185.8 334.01 2185.56 349.25 2138.22 328.01 2088.33 292.24 2113.73 237.81"/><polygon class="cls-21" points="2088.33 292.24 2069.79 336 2090.51 374.54 2113.73 394.88 2126.54 420.4 2145.6 437.59 2171.4 394.73 2185.56 349.25 2088.33 292.24"/><polygon class="cls-22" points="2185.56 349.25 2211.11 359.27 2250.42 386.41 2208.53 406.86 2173.38 430.49 2145.6 437.59 2185.56 349.25"/><polygon class="cls-22" points="2069.79 336 2062.88 352.29 2043.58 392.72 2080.14 400.58 2113.73 394.88 2069.79 336"/><polygon class="cls-20" points="2113.73 394.88 2101.93 441.97 2109.82 481.06 2141.96 454.85 2145.6 437.59 2113.73 394.88"/><polygon class="cls-21" points="2109.82 481.06 2173.25 452.22 2208.53 406.86 2145.6 437.59 2109.82 481.06"/><polygon class="cls-23" points="2250.42 386.41 2176.45 313.92 2185.56 349.25 2250.42 386.41"/><polygon class="cls-48" points="2043.58 392.72 2092.79 499.75 2124.47 474.4 2113.73 394.88 2043.58 392.72"/><polygon class="cls-50" points="2124.47 474.4 2092.79 499.75 2101.93 578.27 2157.13 562.16 2124.47 474.4"/><polygon class="cls-3" points="2157.13 562.16 2164.83 574.93 2124.96 584.39 2101.93 578.27 2157.13 562.16"/><polygon class="cls-2" points="2164.83 574.93 2189.67 594.44 2156.6 596.66 2124.96 584.39 2164.83 574.93"/><polygon class="cls-2" points="2124.96 584.39 2109.82 594.44 2099.17 594.44 2101.93 578.27 2124.96 584.39"/><polygon class="cls-2" points="1966.15 439.36 1958.63 465.02 1951.85 461.68 1946.62 444.76 1953.35 439.43 1966.15 439.36"/><polygon class="cls-2" points="1919.21 421.45 1909.43 441.98 1912.08 465.02 1931.01 450.19 1928.63 434.98 1919.21 421.45"/><polygon class="cls-3" points="1956.05 410.46 1919.21 421.45 1931.01 450.19 1966.15 439.36 1956.05 410.46"/><circle class="cls-15" cx="1996.06" cy="264.69" r="5.68"/><circle class="cls-15" cx="2030.07" cy="267.19" r="5.68"/><g id="pine_tree" data-name="pine tree"><polygon class="cls-53" points="2185.55 450.94 2262.24 430.91 2343.58 457.01 2263 483.68 2185.55 450.94"/><rect class="cls-54" x="2247.58" y="351.91" width="34.92" height="106.23"/><polygon class="cls-55" points="2247.57 382.33 2282.49 402.07 2282.43 320.92 2247.57 320.91 2247.57 382.33"/><polygon class="cls-56" points="2163.15 342.5 2283.33 377.24 2329.33 333.38 2388.84 344.26 2329.72 228.1 2218.06 227.4 2163.15 342.5"/><polygon class="cls-57" points="2283.33 377.24 2388.84 344.26 2335.48 240.03 2282.11 239.33 2283.33 377.24"/><polygon class="cls-55" points="2353.54 275.13 2342.86 254.42 2203.69 251.96 2195.89 264.95 2282.51 311.26 2353.54 275.13"/><polygon class="cls-58" points="2160.59 257.92 2260.35 292.32 2305.1 245.64 2391.73 263.89 2319.47 167.03 2221.75 163.88 2160.59 257.92"/><polygon class="cls-56" points="2260.35 292.32 2391.73 263.89 2333.02 184.94 2278.82 189.14 2260.35 292.32"/><polygon class="cls-55" points="2268.97 240.38 2269.8 240.73 2339.58 194.05 2333.02 184.94 2332.9 184.94 2328.51 178.97 2217.24 170.9 2205.34 189.14 2269.02 240.12 2268.97 240.38"/><polygon class="cls-56" points="2227.09 102.11 2179.06 181.77 2255.01 202.83 2313.32 166.68 2374.47 190.55 2308.79 107.38 2227.09 102.11"/><polygon class="cls-59" points="2255.01 202.83 2374.47 190.55 2323.57 125.98 2279.64 129.13 2255.01 202.83"/><polygon class="cls-55" points="2266.09 170.2 2266.92 170.55 2328.08 131.95 2318.65 126.33 2318.57 126.33 2310.84 121.77 2218.88 115.09 2211.08 128.43 2266.16 169.98 2266.09 170.2"/><polygon class="cls-58" points="2239.82 65.97 2187.68 123.17 2262.81 144.23 2302.64 113.34 2348.62 123.52 2299.34 61.05 2239.82 65.97"/><polygon class="cls-56" points="2262.81 144.23 2348.62 123.52 2310.43 75.44 2298.52 76.49 2278.82 77.19 2262.81 144.23"/><polygon class="cls-55" points="2317.83 84.92 2310.43 75.44 2310.36 75.45 2304.28 67.73 2275.13 63.16 2239.82 65.97 2232.02 74.74 2273.08 105.63 2317.83 84.92"/><polygon class="cls-60" points="2279.23 0 2217.24 66.32 2278.82 93 2305.92 60.35 2329.72 71.23 2279.23 0"/><polygon class="cls-56" points="2278.82 93 2329.72 71.23 2279.23 0 2278.82 93"/></g><g id="grass"><polygon class="cls-53" points="1369.12 505.42 1407.37 519.28 1436.06 503.59 1394.64 497.56 1369.12 505.42"/><polygon class="cls-23" points="1387.17 506.46 1341.86 454.44 1407.37 507.97 1387.17 506.46"/><polygon class="cls-22" points="1407.37 507.97 1381.9 445.14 1386.63 491.02 1407.37 507.97"/><polygon class="cls-23" points="1400.5 491.02 1427.1 465.6 1407.37 507.97 1400.5 491.02"/><polygon class="cls-22" points="1782.28 404.25 1761.35 397.39 1785.79 413.49 1782.28 404.25"/><polygon class="cls-53" points="1770.2 413.49 1797.99 406.86 1828.21 413.49 1794.93 426.84 1770.2 413.49"/><polygon class="cls-23" points="1785.79 413.49 1771.75 376.53 1799.96 413.49 1785.79 413.49"/><polygon class="cls-22" points="1790.44 401.02 1812.27 373.16 1799.96 413.49 1790.44 401.02"/><polygon class="cls-23" points="1803.62 401.5 1830.95 395.01 1808.06 412.5 1799.96 413.49 1803.62 401.5"/><polygon class="cls-22" points="65.88 673.43 86.69 666.62 62.39 682.62 65.88 673.43"/><polygon class="cls-53" points="77.88 682.62 50.27 673.41 20.22 682.62 53.3 696.38 77.88 682.62"/><polygon class="cls-23" points="62.39 682.62 76.35 645.88 48.31 682.62 62.39 682.62"/><polygon class="cls-22" points="57.77 670.22 36.07 642.53 48.31 682.62 57.77 670.22"/><polygon class="cls-23" points="44.67 670.7 17.5 664.25 40.26 681.63 48.31 682.62 44.67 670.7"/><polygon class="cls-53" points="568.5 532.06 594.25 524.88 619.86 533.4 590.21 538.74 568.5 532.06"/><polygon class="cls-22" points="599.18 532.06 587.76 484.65 587.76 533.19 599.18 532.06"/><polygon class="cls-23" points="587.76 533.19 607.05 494.37 599.18 533.4 587.76 533.19"/><polygon class="cls-22" points="599.18 533.4 617.17 511.48 601.32 522.78 599.18 533.4"/><polygon class="cls-23" points="587.76 516.67 571.18 490.66 587.76 533.19 587.76 516.67"/><polygon class="cls-22" points="583.57 522.44 571.18 515.46 587.76 533.19 583.57 522.44"/></g><g id="flower"><polygon class="cls-53" points="890.03 677.53 868.39 668.4 836.81 677.53 868.67 687.88 890.03 677.53"/><polygon class="cls-22" points="867.8 677.53 869.91 644.82 860.71 641.73 867.8 677.53"/><polygon class="cls-22" points="865.53 677.53 855.34 652.83 849.14 660.54 865.53 677.53"/><polygon class="cls-22" points="871.18 676.73 876.5 652.28 887.19 656.56 871.18 676.73"/><polygon class="cls-61" points="875.27 660.3 899.11 652.83 875.27 636.03 875.27 660.3"/><polygon class="cls-27" points="869.4 652.83 876.01 624.33 851.71 636.93 869.4 652.83"/><polygon class="cls-61" points="851.71 663.21 857.33 647.13 831.91 658.23 851.71 663.21"/></g><g id="INFJ"><polygon class="cls-62" points="634.62 543.5 753.41 556.41 937.69 541.75 762.87 528.95 634.62 543.5"/><polygon class="cls-63" points="916.14 261.34 926.38 252.3 935.22 237.25 934.58 202.87 914.01 223.78 907.94 247.81 916.14 261.34"/><polygon class="cls-64" points="970.27 139.93 967.09 142.27 952.96 167.29 947.09 175.59 948.58 192.44 935.22 201.47 937.23 208.08 928.95 227.3 921.26 232.32 912.24 252.1 926.38 252.3 941.89 208.29 956.18 196.28 955.63 175.22 970.27 139.93"/><polygon class="cls-65" points="930.7 231.33 937.23 208.08 935.22 201.47 921.26 232.32 930.7 231.33"/><polygon class="cls-65" points="967.09 142.27 970.27 139.93 964.95 140.34 947.09 175.59 954.44 171.28 967.09 142.27"/><polygon class="cls-66" points="903.87 232.32 909.24 213.85 931.92 199.12 935.22 201.47 930.7 211.26 921.32 219.48 921.26 232.32 917.28 241.04 907.94 247.81 903.87 232.32"/><polygon class="cls-67" points="948.79 202.49 947.09 241.1 926.38 252.3 935.22 201.47 948.79 202.49"/><polygon class="cls-64" points="787.39 509.82 787.39 526.22 807.64 519.97 819.16 511.22 822.92 496.45 787.39 509.82"/><polygon class="cls-64" points="700.36 495.06 694.28 526.3 711.81 526.22 728.44 515.7 732.17 507.83 700.36 495.06"/><polygon class="cls-65" points="819.16 511.22 787.39 526.22 787.39 534.75 814.33 537 847.43 534.75 819.16 511.22"/><rect class="cls-64" x="787.39" y="534.75" width="60.04" height="8.11"/><polygon class="cls-65" points="728.44 515.7 735.83 539.24 715.04 543.3 691.32 539.24 694.28 526.3 728.44 515.7"/><rect class="cls-64" x="691.32" y="539.24" width="44.51" height="8.11"/><polygon class="cls-67" points="663.8 387.53 651.44 401.77 646.25 407.74 652.88 413.87 669.11 391.44 663.8 387.53"/><polygon class="cls-66" points="651.44 364.53 635.62 370.51 629.19 384.45 637.34 403.57 646.25 407.74 646.26 407.73 658.77 394.89 651.44 364.53"/><polygon class="cls-63" points="664.41 386.82 640.94 358.95 635.62 370.51 658.77 394.89 663.8 387.53 664.41 386.82"/><polygon class="cls-67" points="646.25 407.74 629.19 384.45 622.65 407.11 633.41 422.68 646.26 407.73 646.25 407.74"/><polygon class="cls-68" points="731.13 283.28 719.2 281.49 687.74 278.19 729.75 312.09 732.71 322.05 751.89 361.06 777.68 335.91 731.13 283.28"/><polygon class="cls-57" points="715.04 328.06 728.92 352.42 743.46 358.95 753.95 344.03 732.71 307.05 715.04 328.06"/><polygon class="cls-68" points="847.58 314.67 785.62 405.78 753.95 344.03 728.92 352.42 681.49 484.5 745.59 523.3 745.82 523.48 852.14 481.62 847.58 314.67"/><polygon class="cls-58" points="825.22 321.54 804.23 358.18 793.55 348.59 777.68 335.91 753.95 344.03 746.67 514.38 841.48 314.09 826.02 319.38 825.22 321.54"/><polygon class="cls-58" points="687.74 278.19 639.26 342.64 697.72 351.54 720.74 295.35 687.74 278.19"/><polygon class="cls-68" points="639.25 342.64 639.26 342.64 662.52 389.32 675.66 384.78 719.2 297.7 639.25 342.64"/><polygon class="cls-59" points="720.74 295.35 662.52 384.45 683.63 382.86 695.75 375.53 732.71 307.05 720.74 295.35"/><polygon class="cls-64" points="658.77 394.89 690.08 384.45 695.75 375.53 662.52 384.45 639.26 342.64 639.25 342.64 633.35 350.4 658.77 394.89"/><polygon class="cls-69" points="861.22 187.54 827.84 193.99 830.06 210.67 833.47 230.92 850.35 219.17 861.22 187.54"/><polygon class="cls-70" points="823.88 172.15 833.13 197.24 861.22 187.54 823.88 172.15"/><polygon class="cls-69" points="837.04 252.1 843.53 257.38 857.23 260.19 869.2 234.67 850.13 241.04 837.04 252.1"/><polygon class="cls-71" points="850.35 219.17 827.84 219.17 837.04 252.1 869.2 234.67 850.35 219.17"/><polygon class="cls-71" points="711.77 241.04 684.21 248.59 676.18 269.62 692.76 272.68 713.93 254.73 711.77 241.04"/><polygon class="cls-69" points="708.2 221.82 669.9 231.87 684.21 248.59 710.28 253.51 717.86 241.04 708.2 221.82"/><polygon class="cls-70" points="708.3 194.25 700.73 195.88 694.96 188.51 669.9 231.87 709.06 226.46 708.3 194.25"/><polygon class="cls-69" points="729.96 259.21 676.18 269.62 687.74 278.19 733.9 270.63 729.96 259.21"/><polygon class="cls-69" points="828.68 171.82 828.76 172.15 828.72 171.82 828.68 171.82"/><polygon class="cls-68" points="920.5 285.33 897.86 239.54 878.45 263.84 856.82 308.89 920.5 285.33"/><polygon class="cls-58" points="837.04 252.1 834.28 278.61 863.47 302.64 878.45 263.84 837.04 252.1"/><polygon class="cls-59" points="841.48 314.09 882.77 320.41 907.94 302.64 914.83 281.82 863.47 302.64 841.48 279.33 806.26 242.94 841.48 314.09"/><polygon class="cls-64" points="903.87 232.32 897.86 239.54 914.83 281.82 882.77 320.41 892.13 321.25 925.81 284.18 903.87 232.32"/><polygon class="cls-68" points="826.02 319.38 841.48 314.09 833.77 298.4 826.02 319.38"/><polygon class="cls-65" points="777.68 335.91 779.7 337.18 777.68 335.91 777.68 335.91"/><polygon class="cls-65" points="777.68 335.91 777.68 335.91 719.2 298.82 719.2 298.82 777.68 335.91"/><polygon class="cls-64" points="828.25 298.69 820.45 319.77 819.71 321.53 826.02 319.38 833.77 298.4 830.82 292.38 828.25 298.69"/><polygon class="cls-65" points="768.39 263.04 764.54 279.33 728.44 295.35 783.26 333.43 783.59 333.89 819.71 321.53 768.39 263.04"/><polygon class="cls-72" points="718.7 292.48 728.44 295.35 771.11 279.33 710.28 253.51 692.76 272.68 718.7 292.48"/><polygon class="cls-64" points="804.23 238.23 804.16 238.09 803.92 238.26 804.23 238.23"/><polygon class="cls-64" points="779.71 327.9 692.76 272.68 687.74 278.19 777.68 335.91 810.81 378.87 828.87 321.54 779.71 327.9"/><polygon class="cls-64" points="768.39 263.04 748.44 249.41 711.77 241.04 710.28 253.51 771.11 279.33 768.39 263.04"/><polygon class="cls-66" points="839.42 233.91 819.46 117.38 786.29 91.82 765.25 109.63 721.54 106.76 713.93 113.69 729.75 144.56 756.92 256.53 796.9 245.49 839.42 233.91"/><polygon class="cls-73" points="786.29 98.48 819.46 117.38 799.69 90.99 783.42 86.22 779.99 91.82 786.29 98.48"/><polygon class="cls-70" points="783.42 86.22 749.97 76.41 750.76 101.34 768.81 117.38 786.29 98.48 783.42 86.22"/><polygon class="cls-71" points="718.12 101.34 718.47 105.25 721.17 107.48 768.75 117.44 768.81 117.38 749.97 76.41 718.12 101.34"/><polygon class="cls-69" points="763.65 135.88 765.25 140.69 748.01 153.25 745.79 147.63 763.65 135.88"/><polygon class="cls-69" points="788.85 131.61 790.75 137.35 808.72 140.15 809.94 136.27 788.85 131.61"/><polygon class="cls-67" points="748.01 153.25 791.03 197.24 788.85 159.77 773.01 144.47 786.43 142.11 793.34 161.39 799.75 172.04 808.72 140.15 790.75 137.35 786.43 142.11 773.01 144.47 765.25 140.69 748.01 153.25"/><polygon class="cls-67" points="733.45 127.06 721.54 106.76 701.93 140.15 711.77 151.53 713.93 181.47 705.04 171.49 698.58 181.29 687.74 185.3 696.64 211.28 705.81 208.99 711.77 210.19 709.06 226.46 711.77 241.04 750.76 256.19 757.99 256.68 733.45 127.06"/><polygon class="cls-63" points="705.81 208.99 709.06 226.46 717.73 205.78 705.81 208.99"/><polygon class="cls-63" points="776.68 251.07 750.76 256.19 770.45 263.84 776.68 251.07"/><polygon class="cls-63" points="694.96 188.51 710.28 198.75 706.24 184.86 694.96 188.51"/><polygon class="cls-64" points="746.67 514.38 681.49 484.5 678.6 493.59 745.59 523.3 745.82 523.48 852.39 491.46 852.14 481.62 746.67 514.38"/><polygon class="cls-71" points="791.03 197.24 761.79 223.56 779.71 327.9 812.53 358.13 815.04 362.58 813.9 367.01 810.81 378.87 828.78 391.36 816.8 263.84 799.73 199.12 791.03 197.24"/><polygon class="cls-73" points="832.24 355.12 847.58 314.67 830.06 210.67 804.68 194.25 799.73 199.12 828.78 391.36 838.66 372.2 833.6 363.99 830.82 359.94 832.24 355.12"/><polygon class="cls-57" points="833.6 363.99 813.9 367.01 812.53 358.13 832.24 355.12 833.6 363.99"/><polygon class="cls-63" points="812.99 214.25 785.74 218.91 784.53 213.37 811.78 208.72 812.99 214.25"/><circle class="cls-15" cx="765.06" cy="167.69" r="5.09"/><circle class="cls-15" cx="804.68" cy="158.71" r="5.09"/><polygon class="cls-74" points="786.43 142.11 796.2 156 804.68 194.25 791.03 197.24 783.65 159.47 773.01 144.47 786.43 142.11"/><polygon class="cls-69" points="682.31 129.74 698.58 181.29 703.76 179.43 714.85 185.84 718.03 145.23 705.28 137.75 721.54 106.76 718.12 101.34 682.31 129.74"/><polygon class="cls-69" points="804.68 194.25 791.03 197.24 800.29 202.87 804.68 194.25"/></g><g id="tree"><polygon class="cls-47" points="0 425.46 113.67 390.53 230.86 428.53 111.77 473.87 0 425.46"/><rect class="cls-75" x="100.71" y="327.23" width="20.69" height="94.9"/><polygon class="cls-76" points="121.39 389.69 100.71 370.78 100.71 332.79 121.39 332.79 121.39 389.69"/><polygon class="cls-20" points="52.91 336.8 153.65 363.45 227.04 329.85 246.06 285.56 241.33 206.76 130.02 244.76 67.89 281.9 52.91 336.8"/><polygon class="cls-22" points="241.33 206.76 130.39 254.06 0.05 217.99 30.08 157.22 124.21 203.6 201.7 155.16 241.33 206.76"/><polygon class="cls-22" points="198.4 124.39 124.21 203.6 30.08 157.22 73.58 101.98 153.65 66.51 198.4 124.39"/><polygon class="cls-21" points="124.21 203.6 198.4 124.39 201.7 155.16 124.21 203.6"/><polygon class="cls-23" points="153.65 66.51 101.09 150.81 73.58 101.98 153.65 66.51"/><polygon class="cls-21" points="130.39 254.06 52.91 336.8 23.21 272.75 0.05 217.99 130.39 254.06"/><polygon class="cls-77" points="153.65 66.51 101.09 150.81 110.15 196.68 130.39 254.06 23.21 272.75 52.91 336.8 153.65 363.45 241.33 206.76 201.7 155.16 198.4 124.39 153.65 66.51"/><polygon class="cls-77" points="246.06 285.56 153.65 363.45 227.04 329.85 246.06 285.56"/></g></g></svg>